<svg width="388" height="200" viewBox="0 0 388 200" fill="none" xmlns="http://www.w3.org/2000/svg">
<path d="M133.323 47.3873C135.049 47.3873 136.447 42.2581 136.447 35.931C136.447 29.6039 135.049 24.4747 133.323 24.4747C131.597 24.4747 130.199 29.6039 130.199 35.931C130.199 42.2581 131.597 47.3873 133.323 47.3873Z" fill="#444444"/>
<path fill-rule="evenodd" clip-rule="evenodd" d="M102.731 0C99.9712 0 97.2364 0.526672 94.6737 1.55176C93.4298 2.04932 92.2094 2.66467 91.0589 3.42798C87.004 6.11816 85.1645 7.81616 84.3514 8.56671L84.2645 8.64685L84.1762 8.72797C84.1268 8.77301 84.0827 8.81274 84.0434 8.84723C82.6253 10.0881 81.4174 11.2355 80.3254 12.3462C76.0959 16.6483 72.7578 21.6618 69.7 26.6125C65.4945 33.4214 61.9997 40.6439 59.2702 48.166C60.6708 48.324 62.0685 48.5526 63.4582 48.8457C66.0491 41.8583 69.3271 35.1439 73.2444 28.8016C76.2705 23.9021 79.409 19.2206 83.2961 15.2668C84.3144 14.231 85.4464 13.1551 86.7867 11.9824L86.8217 11.9515L86.8535 11.9231L86.9034 11.8781C86.9355 11.849 86.9694 11.8181 87.005 11.7853L87.1278 11.6721C87.9388 10.9238 89.5859 9.40454 93.3619 6.89941C94.2419 6.31561 95.2025 5.82709 96.2209 5.41968C98.2916 4.59143 100.501 4.16589 102.731 4.16589H105.251C106.111 4.16589 106.719 5.00879 106.447 5.82489C106.344 6.13373 106.269 6.45123 106.223 6.7735L105.214 13.8382L104.68 21.3119L105.203 36.4879C105.206 43.8896 105.968 51.2716 107.477 58.5178L107.849 60.3018C109.61 69.1045 112.365 77.6789 116.059 85.8604L117.83 89.7814L119.667 95.816H124.021L121.737 88.3115L120.793 86.2214C121.163 86.6607 121.712 86.946 122.331 86.9627L176.641 88.4305C179.276 88.5017 181.888 87.9223 184.246 86.7436L185.934 85.8992C187.825 84.9538 189.5 83.6274 190.853 82.0034C191.493 81.2361 192.055 80.4082 192.534 79.5314L193.107 78.4802C194.49 75.9445 195.466 73.2069 195.998 70.368L196.24 69.0791C196.648 66.9022 196.853 64.6922 196.853 62.4773V60.9265C196.853 59.655 196.958 58.3856 197.167 57.1314L197.516 55.0418C197.768 53.5279 197.895 51.9957 197.895 50.4609V49.5845C197.895 48.3324 197.771 47.0834 197.525 45.8556L197.241 44.4345C196.901 42.7334 196.204 41.1238 195.195 39.7121C194.137 38.231 192.763 37.0041 191.172 36.1202L190.357 35.6674C188.94 34.8802 187.414 34.3075 185.829 33.9678L183.654 33.5018C181.498 33.0396 179.298 32.8066 177.092 32.8066H161.846C159.025 32.8066 156.219 32.3848 153.523 31.5552L152.414 31.2139C151.663 30.9826 150.931 30.6897 150.228 30.338L148.789 29.6187C148.037 29.2425 147.367 28.7196 146.82 28.0808C145.839 26.9368 145.3 25.4796 145.3 23.9728V19.7995C145.3 17.7233 144.758 15.6831 143.728 13.8804C143.098 12.7772 142.295 11.7818 141.351 10.9318L139.443 9.21497C137.918 7.84259 136.247 6.64264 134.459 5.63684L132.078 4.29767C129.627 2.91882 127.011 1.85455 124.294 1.12994C121.481 0.379822 118.583 0 115.671 0H105.724C105.663 0 105.603 0.00256348 105.544 0.00762939C105.447 0.00256348 105.35 0 105.251 0H102.731ZM110.533 4.16589C110.76 5.10785 110.736 6.12982 110.399 7.14227C110.375 7.21405 110.358 7.28778 110.347 7.36261L109.358 14.2817L108.851 21.3887L109.368 36.38L107.286 36.4518H109.369C109.369 43.5801 110.102 50.6896 111.556 57.6681L111.929 59.4602L109.89 59.885L111.932 59.4765C113.632 67.973 116.29 76.249 119.856 84.1458L120.327 85.1887C120.31 85.07 120.302 84.9482 120.305 84.8242C120.336 83.6742 121.294 82.7672 122.444 82.7983L176.754 84.2661C178.704 84.3188 180.637 83.89 182.382 83.0174L184.071 82.173C185.448 81.4847 186.667 80.5189 187.653 79.3365C188.118 78.7778 188.528 78.1749 188.876 77.5365L189.45 76.4854C190.624 74.3332 191.452 72.0098 191.903 69.6003L192.145 68.3114C192.506 66.3877 192.687 64.4346 192.687 62.4773V60.9265L192.688 60.7965L189.563 58.8435C187.143 57.4605 184.556 56.3925 181.879 55.6169C179.094 54.8105 175.922 53.8559 175.28 53.5346C174.77 53.2801 174.744 53.2704 174.667 53.242L174.666 53.2416C174.603 53.2184 174.504 53.1819 174.082 52.9904L169.775 51.0325L166.767 49.6956C165.67 49.2083 164.735 48.4194 164.069 47.4209L163.615 46.7399C163.217 46.1434 163.005 45.4425 163.005 44.7255C163.005 43.7624 163.388 42.8388 164.069 42.1577L169.254 36.9725H161.846C158.61 36.9725 155.391 36.4886 152.298 35.5369L151.189 35.1956C150.218 34.8969 149.273 34.5184 148.365 34.0641L146.926 33.3449C145.677 32.7203 144.566 31.8523 143.657 30.792C142.029 28.8929 141.134 26.4741 141.134 23.9728V19.7995C141.134 18.4483 140.782 17.1205 140.111 15.9473C139.701 15.2293 139.179 14.5815 138.564 14.0283L136.656 12.3115C135.359 11.1441 133.937 10.1233 132.416 9.26776L130.035 7.92853C127.889 6.72144 125.6 5.78961 123.221 5.15515C120.758 4.49847 118.22 4.16589 115.671 4.16589H110.533Z" fill="#444444"/>
<path d="M16.5493 50.2377L11.8255 42.3646C25.174 46.5469 34.1515 57.1683 32.3694 69.197C32.2901 69.7327 32.66 70.2313 33.1957 70.3107C33.7314 70.3901 34.23 70.0201 34.3094 69.4844C36.062 57.6545 28.4115 47.4294 16.9473 42.2251C18.6547 42.3941 20.3561 42.6258 22.048 42.9201L24.1524 43.2861C26.1917 43.6407 28.2016 44.1474 30.1652 44.802C32.0282 45.423 33.8448 46.1754 35.6012 47.0536L38.7297 48.6179L42.5472 51.1629C43.8336 52.0205 45.0322 53.0031 46.1255 54.0964C46.9111 54.882 47.6399 55.7223 48.3065 56.6111L49.1757 57.77C50.009 58.8811 51.3168 59.535 52.7057 59.535C54.7289 59.535 56.7421 59.817 58.6874 60.3728L59.7492 60.6761C61.5123 61.1799 63.2249 61.8461 64.865 62.6661L66.8138 63.6405C70.2792 65.3732 73.5445 67.4799 76.5515 69.9231L76.6903 70.0359C78.7168 71.6824 80.6229 73.4719 82.3939 75.3905L85.5281 78.7858L90.3861 85.5871L91.3578 87.0446C91.6582 87.4952 92.267 87.617 92.7176 87.3166C93.1682 87.0162 93.29 86.4074 92.9896 85.9568L92.0002 84.4728L87.0525 77.5459L83.835 74.0603C82.0005 72.0729 80.0261 70.2194 77.927 68.5139L77.7882 68.401C74.6702 65.8676 71.2842 63.6831 67.6908 61.8864L65.742 60.912C63.9935 60.0377 62.1677 59.3275 60.2879 58.7904L59.2262 58.4871C57.1057 57.8812 54.9111 57.5739 52.7057 57.5739C51.9341 57.5739 51.2075 57.2106 50.7446 56.5933L49.8754 55.4344C49.1531 54.4714 48.3634 53.5608 47.5122 52.7096C46.3276 51.5251 45.0289 50.4604 43.635 49.5311L39.716 46.9184L36.4782 45.2995C34.6388 44.3798 32.7364 43.5918 30.7854 42.9415C28.7289 42.256 26.6241 41.7253 24.4884 41.3539L22.384 40.9879C18.4044 40.2958 14.3737 39.94 10.3347 39.9241C10.3106 39.9232 10.2866 39.9231 10.2627 39.9239L10.0522 39.9236H9.87024C9.07965 39.9236 8.59131 40.7861 8.99811 41.464L14.8289 51.1821L17.7356 56.9953L18.6905 59.3826C19.2989 60.9036 19.6114 62.5266 19.6114 64.1647V64.8246C19.6114 66.9225 18.9945 68.9737 17.838 70.7233L13.9768 75.5497L11.5613 77.9652C9.87811 79.6484 8.40771 81.5317 7.18298 83.5729C6.38409 84.9044 5.69299 86.2976 5.11633 87.7393L3.98169 90.5759L2.9801 93.5806L2.81116 94.2566C2.24658 96.5147 1.96112 98.8336 1.96112 101.161V103.465C1.96112 104.999 2.20837 106.523 2.69336 107.978C2.90692 108.618 3.16565 109.243 3.46759 109.847L4.98816 112.888L5.62518 114.481C6.44354 116.526 6.86401 118.71 6.86401 120.913V123.647C6.86401 124.538 6.65649 125.417 6.258 126.214C6.10394 126.522 5.92255 126.815 5.71594 127.091L3.50336 130.041C3.28784 130.328 3.05212 130.6 2.7981 130.854L0.687744 132.964C0.247375 133.405 0 134.002 0 134.625C0 135.089 0.137207 135.542 0.394409 135.927L2.15491 138.568L3.94336 140.714C6.09528 143.297 8.64423 145.52 11.4946 147.302L12.1317 147.7C14.2247 149.008 16.491 150.016 18.8642 150.694C21.2204 151.367 23.659 151.709 26.1095 151.709H28.6802C30.882 151.709 33.0744 151.421 35.2019 150.854C38.1417 150.07 40.9161 148.763 43.3919 146.994L43.8128 146.693C45.7692 145.296 47.5385 143.654 49.0776 141.807L50.3002 140.34C51.3073 139.131 52.1712 137.81 52.8746 136.403L52.9756 136.202C53.5741 135.005 54.0398 133.746 54.3644 132.447C54.7281 130.993 54.912 129.499 54.912 127.999V122.292C54.912 122.138 54.8768 121.993 54.814 121.864L55.4947 121.299L56.2064 120.707C56.4145 120.534 56.4426 120.225 56.2692 120.017C56.0959 119.809 55.7867 119.78 55.5787 119.954C55.0208 120.419 54.477 120.871 53.9431 121.311H53.9314C53.4517 121.311 53.0525 121.655 52.9675 122.111C49.6726 124.792 46.6715 127.02 42.9486 128.988C38.2718 131.459 32.4339 133.531 23.4269 135.541C23.1626 135.6 22.9962 135.862 23.0552 136.126C23.1142 136.391 23.3762 136.557 23.6405 136.498C32.6974 134.477 38.6264 132.381 43.4068 129.855C46.9654 127.974 49.8754 125.86 52.9509 123.386V127.999C52.9509 129.338 52.7866 130.672 52.4618 131.972C52.1719 133.131 51.756 134.255 51.2215 135.324L51.1205 135.526C50.7814 136.205 50.4011 136.861 49.9818 137.491C49.9612 137.492 49.9404 137.495 49.9196 137.499C42.0068 138.969 37.1366 139.427 27.4547 139.452C27.184 139.452 26.965 139.672 26.9657 139.943C26.9664 140.214 27.1865 140.433 27.4573 140.432C36.8022 140.408 41.7192 139.981 49.1557 138.636C49.0374 138.787 48.9167 138.937 48.7936 139.084L47.571 140.551C46.1391 142.27 44.493 143.798 42.6729 145.098L42.252 145.398C39.968 147.03 37.4086 148.236 34.6966 148.959C32.734 149.483 30.7114 149.748 28.6802 149.748H26.1095C23.8412 149.748 21.584 149.431 19.403 148.808C17.2062 148.181 15.1085 147.248 13.1711 146.037L12.534 145.639C9.97839 144.041 7.68115 142.065 5.7204 139.779L6.37372 140.432L6.74506 140.061C8.0769 138.729 8.82513 136.923 8.82513 135.039L5.07074 133.332C4.12598 132.903 3.00916 133.222 2.43347 134.085C2.25507 134.353 2.14478 134.649 2.1004 134.951L2.02612 134.84C1.98376 134.776 1.96112 134.701 1.96112 134.625C1.96112 134.577 1.96997 134.53 1.98676 134.486C2.00598 134.436 2.03571 134.39 2.07452 134.351L4.18488 132.241C4.50452 131.921 4.80109 131.579 5.07227 131.218L7.28485 128.268C7.56207 127.898 7.80542 127.504 8.01208 127.091C8.54675 126.022 8.82513 124.842 8.82513 123.647V120.913C8.82513 118.46 8.35712 116.03 7.44611 113.752L6.77875 112.084L5.22168 108.97C4.96124 108.449 4.7381 107.91 4.55389 107.358C4.13556 106.103 3.9223 104.788 3.9223 103.465V101.161C3.9223 98.9939 4.18811 96.8348 4.71375 94.7322L4.86444 94.1294L5.82397 91.2507L6.93719 88.4676C7.47504 87.1231 8.11957 85.8237 8.86462 84.5819C10.0069 82.6782 11.3782 80.9218 12.9481 79.352L15.4403 76.8597L19.3966 71.9144L18.6309 71.3019L19.4467 71.8458C20.8329 69.7666 21.5726 67.3236 21.5726 64.8246V64.1647C21.5726 62.2771 21.2124 60.4069 20.5114 58.6543L19.5261 56.1913L16.5493 50.2377Z" fill="#444444"/>
<path d="M67.0255 102.046C67.217 101.855 67.217 101.544 67.0255 101.353C66.8341 101.161 66.5236 101.161 66.3322 101.353C52.1538 115.531 42.7385 122.454 22.3515 131.65C22.1047 131.762 21.9949 132.052 22.1062 132.299C22.2176 132.546 22.5079 132.656 22.7547 132.544C43.2547 123.297 52.7673 116.304 67.0255 102.046Z" fill="#444444"/>
<path d="M22.0629 117.879C22.0629 123.295 20.7458 127.685 19.1211 127.685C17.4965 127.685 16.1794 123.295 16.1794 117.879C16.1794 112.463 17.4965 108.073 19.1211 108.073C20.7458 108.073 22.0629 112.463 22.0629 117.879Z" fill="#444444"/>
<path fill-rule="evenodd" clip-rule="evenodd" d="M114.021 98.3711C110.135 94.7514 104.546 92.9415 97.2533 92.9415H79.4475V151.709H91.0252V133.104H99.3293C103.162 133.104 106.382 132.519 108.991 131.348C111.652 130.123 113.755 128.527 115.299 126.557C116.896 124.587 118.04 122.405 118.732 120.01C119.477 117.561 119.85 115.139 119.85 112.744C119.85 106.728 117.907 101.938 114.021 98.3711ZM104.679 120.329C103.401 121.34 101.592 121.846 99.2494 121.846H91.0252V104.12H99.3293C101.352 104.12 102.949 104.466 104.12 105.158C105.344 105.85 106.249 106.702 106.835 107.713C107.42 108.725 107.793 109.736 107.953 110.747C108.166 111.706 108.272 112.477 108.272 113.063C108.272 114.074 108.006 115.272 107.474 116.656C106.941 118.04 106.01 119.264 104.679 120.329Z" fill="#444444"/>
<path fill-rule="evenodd" clip-rule="evenodd" d="M145.54 152.667C141.281 152.667 137.662 151.868 134.681 150.271C131.753 148.675 129.517 146.465 127.974 143.644C126.43 140.823 125.658 137.576 125.658 133.903C125.658 130.39 126.563 127.222 128.373 124.401C130.183 121.58 132.605 119.344 135.639 117.694C138.673 115.991 142.053 115.139 145.779 115.139C150.783 115.139 154.882 116.603 158.076 119.53C161.323 122.405 163.426 126.584 164.384 132.066L138.833 140.211C140.536 142.18 142.852 143.165 145.779 143.165C147.004 143.165 148.175 142.952 149.293 142.526C150.464 142.101 151.608 141.542 152.726 140.85L157.677 149.154C155.814 150.218 153.791 151.07 151.608 151.709C149.479 152.347 147.456 152.667 145.54 152.667ZM136.677 133.264V133.983L152.008 128.793C151.528 127.462 150.757 126.317 149.692 125.359C148.627 124.348 147.03 123.842 144.901 123.842C142.399 123.842 140.403 124.694 138.913 126.397C137.422 128.101 136.677 130.39 136.677 133.264Z" fill="#444444"/>
<path d="M186.959 101.485H175.781V116.656H170.351V125.359H175.781V151.709H186.959V125.359H195.423V116.656H186.959V101.485Z" fill="#444444"/>
<path d="M237.147 107.154C234.911 105.93 232.623 104.919 230.28 104.12C227.991 103.322 225.836 102.922 223.813 102.922C221.311 102.922 219.341 103.428 217.904 104.439C216.467 105.451 215.748 106.968 215.748 108.991C215.748 110.375 216.281 111.626 217.345 112.744C218.463 113.808 219.874 114.766 221.577 115.618C223.334 116.47 225.144 117.242 227.007 117.934C229.296 118.785 231.505 119.876 233.634 121.207C235.763 122.485 237.52 124.268 238.904 126.557C240.288 128.793 240.98 131.774 240.98 135.5C240.98 138.481 240.208 141.249 238.664 143.804C237.121 146.359 234.858 148.435 231.877 150.032C228.896 151.576 225.223 152.347 220.858 152.347C217.505 152.347 214.071 151.842 210.558 150.83C207.098 149.819 203.824 148.222 200.737 146.04L205.847 137.017C207.87 138.507 210.186 139.732 212.794 140.69C215.402 141.648 217.744 142.127 219.82 142.127C221.204 142.127 222.588 141.941 223.972 141.568C225.41 141.142 226.581 140.45 227.486 139.492C228.444 138.534 228.923 137.203 228.923 135.5C228.923 133.743 228.071 132.226 226.368 130.949C224.718 129.618 222.722 128.5 220.379 127.595C218.57 126.903 216.706 126.105 214.79 125.2C212.874 124.295 211.064 123.203 209.361 121.926C207.71 120.595 206.353 118.972 205.288 117.055C204.277 115.086 203.771 112.69 203.771 109.869C203.771 106.462 204.516 103.508 206.007 101.006C207.551 98.5042 209.707 96.5346 212.475 95.0974C215.243 93.6069 218.436 92.7818 222.056 92.6222C226.794 92.6222 230.626 93.1811 233.554 94.2989C236.535 95.4168 239.197 96.7476 241.539 98.2913L237.147 107.154Z" fill="#444444"/>
<path d="M250.482 88.7097V151.709H261.661V137.496C261.661 133.77 262.406 130.709 263.896 128.314C265.44 125.865 267.516 124.641 270.125 124.641C271.934 124.641 273.212 125.12 273.957 126.078C274.756 126.983 275.181 128.207 275.235 129.751V151.709H286.413V125.599C286.36 122.511 285.216 120.01 282.98 118.093C280.797 116.124 278.056 115.139 274.756 115.139C271.562 115.139 268.847 115.804 266.611 117.135C264.376 118.466 262.646 120.196 261.421 122.325V88.7097H250.482Z" fill="#444444"/>
<path fill-rule="evenodd" clip-rule="evenodd" d="M295.176 133.823C295.176 130.257 296.001 127.063 297.652 124.241C299.355 121.42 301.724 119.211 304.758 117.614C307.792 115.964 311.279 115.139 315.218 115.139C319.21 115.139 322.67 115.964 325.598 117.614C328.526 119.211 330.761 121.42 332.305 124.241C333.902 127.063 334.701 130.257 334.701 133.823C334.701 137.39 333.902 140.61 332.305 143.484C330.761 146.306 328.526 148.541 325.598 150.192C322.67 151.842 319.157 152.667 315.058 152.667C311.226 152.667 307.792 151.922 304.758 150.431C301.777 148.941 299.435 146.785 297.732 143.964C296.028 141.142 295.176 137.762 295.176 133.823ZM306.435 133.903C306.435 136.671 307.233 138.986 308.83 140.85C310.427 142.659 312.45 143.564 314.898 143.564C317.507 143.564 319.583 142.659 321.127 140.85C322.67 138.986 323.442 136.671 323.442 133.903C323.442 131.135 322.67 128.846 321.127 127.036C319.583 125.173 317.507 124.241 314.898 124.241C312.45 124.241 310.427 125.173 308.83 127.036C307.233 128.846 306.435 131.135 306.435 133.903Z" fill="#444444"/>
<path fill-rule="evenodd" clip-rule="evenodd" d="M359.476 151.629C361.446 152.321 363.415 152.667 365.385 152.667C369.111 152.667 372.411 151.948 375.286 150.511C378.16 149.074 380.422 146.971 382.073 144.203C383.723 141.435 384.548 138.082 384.548 134.142C384.548 130.15 383.803 126.743 382.312 123.922C380.875 121.048 378.879 118.865 376.324 117.375C373.769 115.831 370.868 115.059 367.62 115.059C364.799 115.059 362.271 115.565 360.035 116.576C357.853 117.534 355.856 118.732 354.047 120.169L353.088 116.017H343.507V168.477H354.605V148.515C355.936 149.846 357.56 150.884 359.476 151.629ZM368.099 142.686C366.609 143.484 364.959 143.884 363.149 143.884C361.126 143.884 359.343 143.378 357.799 142.367C356.309 141.355 355.271 139.998 354.685 138.294V129.751C355.643 127.994 356.868 126.69 358.358 125.838C359.849 124.933 361.712 124.481 363.947 124.481C366.503 124.481 368.685 125.386 370.495 127.196C372.305 128.952 373.21 131.321 373.21 134.302C373.21 136.165 372.731 137.842 371.772 139.332C370.868 140.77 369.643 141.888 368.099 142.686Z" fill="#444444"/>
<path d="M195.241 181.795C194.347 181.305 193.431 180.901 192.494 180.581C191.579 180.262 190.717 180.102 189.907 180.102C188.907 180.102 188.119 180.304 187.544 180.709C186.969 181.114 186.682 181.72 186.682 182.53C186.682 183.083 186.895 183.583 187.32 184.031C187.768 184.456 188.332 184.84 189.013 185.18C189.716 185.521 190.44 185.83 191.185 186.107C192.101 186.447 192.984 186.884 193.836 187.416C194.688 187.927 195.39 188.64 195.944 189.556C196.497 190.45 196.774 191.643 196.774 193.133C196.774 194.326 196.465 195.433 195.848 196.455C195.23 197.477 194.326 198.307 193.133 198.946C191.941 199.563 190.472 199.872 188.726 199.872C187.384 199.872 186.011 199.67 184.606 199.265C183.222 198.861 181.912 198.222 180.677 197.349L182.721 193.74C183.53 194.336 184.457 194.826 185.5 195.209C186.543 195.592 187.48 195.784 188.31 195.784C188.864 195.784 189.418 195.71 189.971 195.561C190.546 195.39 191.015 195.113 191.377 194.73C191.76 194.347 191.951 193.815 191.951 193.133C191.951 192.431 191.611 191.824 190.929 191.313C190.269 190.78 189.471 190.333 188.534 189.971C187.81 189.694 187.065 189.375 186.298 189.013C185.532 188.651 184.808 188.215 184.126 187.704C183.466 187.171 182.923 186.522 182.498 185.755C182.093 184.967 181.891 184.009 181.891 182.881C181.891 181.518 182.189 180.336 182.785 179.336C183.403 178.335 184.265 177.547 185.372 176.972C186.479 176.376 187.757 176.046 189.205 175.982C191.1 175.982 192.633 176.206 193.804 176.653C194.996 177.1 196.061 177.632 196.998 178.25L195.241 181.795Z" fill="#444444"/>
<path fill-rule="evenodd" clip-rule="evenodd" d="M202.907 199.233C203.971 199.744 205.153 200 206.452 200C207.282 200 208.006 199.872 208.624 199.617C209.241 199.361 209.752 199.063 210.157 198.722C210.583 198.382 210.902 198.105 211.115 197.892V199.617H215.586V185.66H211.434L211.147 187.097C210.721 186.564 210.146 186.075 209.422 185.628C208.72 185.18 207.676 184.957 206.292 184.957C205.121 184.957 204.014 185.276 202.971 185.915C201.927 186.533 201.086 187.416 200.447 188.566C199.809 189.716 199.489 191.078 199.489 192.654C199.489 194.336 199.798 195.72 200.415 196.806C201.033 197.892 201.863 198.701 202.907 199.233ZM211.115 194.251C210.412 195.656 209.284 196.359 207.729 196.359C207.069 196.359 206.452 196.189 205.877 195.848C205.323 195.507 204.876 195.039 204.536 194.443C204.195 193.846 204.025 193.176 204.025 192.431C204.025 191.302 204.376 190.386 205.079 189.684C205.781 188.96 206.612 188.598 207.57 188.598C208.421 188.598 209.156 188.8 209.773 189.205C210.412 189.609 210.859 190.152 211.115 190.834V194.251Z" fill="#444444"/>
<path d="M209.422 183.647C209.912 183.945 210.519 184.095 211.243 184.095C211.881 184.095 212.446 183.882 212.935 183.456C213.446 183.03 213.819 182.455 214.053 181.731C214.288 180.986 214.33 180.155 214.181 179.24H211.945C211.967 179.751 211.935 180.251 211.85 180.741C211.786 181.209 211.551 181.444 211.147 181.444C210.891 181.444 210.636 181.348 210.38 181.156C210.125 180.965 209.848 180.741 209.55 180.485C209.188 180.187 208.794 179.889 208.368 179.591C207.942 179.293 207.463 179.144 206.931 179.144C206.101 179.144 205.409 179.378 204.855 179.847C204.323 180.315 203.929 180.922 203.673 181.667C203.439 182.412 203.375 183.2 203.482 184.031H205.717C205.653 183.562 205.685 183.104 205.813 182.657C205.962 182.189 206.25 181.955 206.675 181.955C206.931 181.955 207.165 182.029 207.378 182.178C207.612 182.327 207.847 182.498 208.081 182.689C208.485 183.009 208.932 183.328 209.422 183.647Z" fill="#444444"/>
<path fill-rule="evenodd" clip-rule="evenodd" d="M219.108 192.462C219.108 191.036 219.438 189.758 220.098 188.63C220.779 187.501 221.727 186.618 222.94 185.979C224.154 185.319 225.549 184.989 227.124 184.989C228.721 184.989 230.105 185.319 231.276 185.979C232.448 186.618 233.342 187.501 233.959 188.63C234.598 189.758 234.917 191.036 234.917 192.462C234.917 193.889 234.598 195.177 233.959 196.327C233.342 197.456 232.448 198.35 231.276 199.01C230.105 199.67 228.7 200 227.061 200C225.528 200 224.154 199.702 222.94 199.106C221.748 198.51 220.811 197.647 220.13 196.519C219.449 195.39 219.108 194.038 219.108 192.462ZM223.611 192.494C223.611 193.602 223.931 194.528 224.569 195.273C225.208 195.997 226.017 196.359 226.997 196.359C228.04 196.359 228.87 195.997 229.488 195.273C230.105 194.528 230.414 193.602 230.414 192.494C230.414 191.387 230.105 190.472 229.488 189.748C228.87 189.002 228.04 188.63 226.997 188.63C226.017 188.63 225.208 189.002 224.569 189.748C223.931 190.472 223.611 191.387 223.611 192.494Z" fill="#444444"/>
<path d="M264.253 176.11H249.561V199.617H254.192V190.386H262.911V185.915H254.192V180.581H264.253V176.11Z" fill="#444444"/>
<path d="M272.001 185.66L272.353 188.853C272.757 188.044 273.311 187.352 274.013 186.777C274.716 186.181 275.408 185.734 276.089 185.436C276.771 185.117 277.292 184.957 277.654 184.957L277.431 189.428C276.388 189.301 275.493 189.471 274.748 189.939C274.003 190.408 273.428 191.025 273.023 191.792C272.619 192.558 272.416 193.346 272.416 194.155V199.617H267.977V185.66H272.001Z" fill="#444444"/>
<path fill-rule="evenodd" clip-rule="evenodd" d="M282.941 199.233C284.005 199.744 285.187 200 286.486 200C287.316 200 288.04 199.872 288.658 199.617C289.275 199.361 289.786 199.063 290.191 198.722C290.616 198.382 290.936 198.105 291.149 197.892V199.617H295.62V185.66H291.468L291.181 187.097C290.755 186.564 290.18 186.075 289.456 185.628C288.753 185.18 287.71 184.957 286.326 184.957C285.155 184.957 284.048 185.276 283.004 185.915C281.961 186.533 281.12 187.416 280.481 188.566C279.842 189.716 279.523 191.078 279.523 192.654C279.523 194.336 279.832 195.72 280.449 196.806C281.067 197.892 281.897 198.701 282.941 199.233ZM291.149 194.251C290.446 195.656 289.318 196.359 287.763 196.359C287.103 196.359 286.486 196.189 285.911 195.848C285.357 195.507 284.91 195.039 284.569 194.443C284.229 193.846 284.058 193.176 284.058 192.431C284.058 191.302 284.41 190.386 285.112 189.684C285.815 188.96 286.645 188.598 287.604 188.598C288.455 188.598 289.19 188.8 289.807 189.205C290.446 189.609 290.893 190.152 291.149 190.834V194.251Z" fill="#444444"/>
<path d="M304.284 185.66L304.603 187.895C305.093 187.022 305.785 186.32 306.679 185.787C307.573 185.255 308.659 184.989 309.937 184.989C311.257 184.989 312.354 185.383 313.227 186.171C314.121 186.937 314.579 187.938 314.6 189.173V199.617H310.129V190.834C310.107 190.216 309.937 189.726 309.618 189.364C309.319 188.981 308.808 188.79 308.084 188.79C307.041 188.79 306.211 189.279 305.593 190.259C304.997 191.217 304.699 192.441 304.699 193.932V199.617H300.228V185.66H304.284Z" fill="#444444"/>
<path d="M328.709 199.553C329.646 199.255 330.423 198.861 331.04 198.371L328.805 195.561C328.166 196.093 327.357 196.359 326.377 196.359C325.228 196.359 324.301 195.997 323.599 195.273C322.917 194.549 322.577 193.665 322.577 192.622C322.577 191.536 322.907 190.653 323.567 189.971C324.227 189.269 325.015 188.917 325.93 188.917C326.633 188.917 327.24 189.045 327.751 189.301C328.283 189.535 328.698 189.769 328.996 190.003L331.168 187.129C330.508 186.575 329.71 186.128 328.773 185.787C327.857 185.447 326.771 185.276 325.515 185.276C324.259 185.276 323.056 185.564 321.906 186.139C320.777 186.714 319.862 187.555 319.159 188.662C318.457 189.748 318.105 191.068 318.105 192.622C318.105 194.943 318.819 196.753 320.245 198.052C321.693 199.351 323.609 200 325.994 200C326.888 200 327.793 199.851 328.709 199.553Z" fill="#444444"/>
<path d="M334.474 185.66H338.946V199.617H334.474V185.66Z" fill="#444444"/>
<path d="M334.379 180.709C334.379 180.049 334.634 179.506 335.145 179.08C335.677 178.654 336.242 178.441 336.838 178.441C337.434 178.441 337.977 178.654 338.467 179.08C338.978 179.506 339.233 180.049 339.233 180.709C339.233 181.369 338.978 181.912 338.467 182.338C337.977 182.742 337.434 182.945 336.838 182.945C336.242 182.945 335.677 182.742 335.145 182.338C334.634 181.912 334.379 181.369 334.379 180.709Z" fill="#444444"/>
<path d="M344.86 199.297C345.861 199.702 346.936 199.904 348.086 199.904C349.449 199.904 350.567 199.67 351.44 199.202C352.334 198.733 352.994 198.126 353.42 197.381C353.867 196.614 354.09 195.805 354.09 194.954C354.09 193.91 353.792 193.08 353.196 192.462C352.6 191.824 351.801 191.334 350.801 190.993C350.311 190.823 349.811 190.674 349.3 190.546C348.789 190.418 348.363 190.237 348.022 190.003C347.703 189.769 347.554 189.45 347.575 189.045C347.575 188.747 347.735 188.491 348.054 188.278C348.373 188.044 348.821 187.938 349.395 187.959C349.821 187.98 350.279 188.108 350.769 188.342C351.28 188.555 351.738 188.821 352.142 189.141L353.835 186.522C353.111 185.99 352.344 185.606 351.535 185.372C350.726 185.138 349.736 185.021 348.565 185.021C347.266 185.021 346.202 185.266 345.371 185.755C344.562 186.224 343.966 186.82 343.583 187.544C343.221 188.247 343.04 188.949 343.04 189.652C343.04 190.567 343.316 191.419 343.87 192.207C344.445 192.973 345.371 193.559 346.649 193.964C347.16 194.113 347.639 194.262 348.086 194.411C348.533 194.538 348.895 194.709 349.172 194.922C349.47 195.135 349.619 195.422 349.619 195.784C349.619 196.167 349.438 196.444 349.076 196.614C348.714 196.785 348.256 196.87 347.703 196.87C347.234 196.87 346.702 196.742 346.106 196.487C345.531 196.21 344.903 195.763 344.221 195.145L342.369 197.605C343.05 198.329 343.881 198.893 344.86 199.297Z" fill="#444444"/>
<path d="M369.685 198.371C369.067 198.861 368.29 199.255 367.353 199.553C366.438 199.851 365.533 200 364.639 200C362.254 200 360.338 199.351 358.89 198.052C357.463 196.753 356.75 194.943 356.75 192.622C356.75 191.068 357.101 189.748 357.804 188.662C358.506 187.555 359.422 186.714 360.55 186.139C361.7 185.564 362.903 185.276 364.16 185.276C365.416 185.276 366.502 185.447 367.417 185.787C368.354 186.128 369.153 186.575 369.813 187.129L367.641 190.003C367.343 189.769 366.928 189.535 366.395 189.301C365.884 189.045 365.277 188.917 364.575 188.917C363.659 188.917 362.871 189.269 362.211 189.971C361.551 190.653 361.221 191.536 361.221 192.622C361.221 193.665 361.562 194.549 362.243 195.273C362.946 195.997 363.872 196.359 365.022 196.359C366.001 196.359 366.81 196.093 367.449 195.561L369.685 198.371Z" fill="#444444"/>
<path fill-rule="evenodd" clip-rule="evenodd" d="M373.023 188.63C372.363 189.758 372.033 191.036 372.033 192.462C372.033 194.038 372.374 195.39 373.055 196.519C373.736 197.647 374.673 198.51 375.866 199.106C377.079 199.702 378.453 200 379.986 200C381.625 200 383.03 199.67 384.202 199.01C385.373 198.35 386.267 197.456 386.884 196.327C387.523 195.177 387.843 193.889 387.843 192.462C387.843 191.036 387.523 189.758 386.884 188.63C386.267 187.501 385.373 186.618 384.202 185.979C383.03 185.319 381.646 184.989 380.05 184.989C378.474 184.989 377.079 185.319 375.866 185.979C374.652 186.618 373.704 187.501 373.023 188.63ZM377.494 195.273C376.856 194.528 376.536 193.602 376.536 192.494C376.536 191.387 376.856 190.472 377.494 189.748C378.133 189.002 378.942 188.63 379.922 188.63C380.965 188.63 381.796 189.002 382.413 189.748C383.031 190.472 383.339 191.387 383.339 192.494C383.339 193.602 383.031 194.528 382.413 195.273C381.796 195.997 380.965 196.359 379.922 196.359C378.942 196.359 378.133 195.997 377.494 195.273Z" fill="#444444"/>
</svg>
